<svg version="1.1" viewBox="0.0 0.0 960.0 540.0" fill="none" stroke="none" stroke-linecap="square" stroke-miterlimit="10" xmlns:xlink="http://www.w3.org/1999/xlink" xmlns="http://www.w3.org/2000/svg"><clipPath id="g109ca7c1c51_0_361.0"><path d="m0 0l960.0 0l0 540.0l-960.0 0l0 -540.0z" clip-rule="nonzero"/></clipPath><g clip-path="url(#g109ca7c1c51_0_361.0)"><path fill="#ffffff" d="m0 0l960.0 0l0 540.0l-960.0 0z" fill-rule="evenodd"/><path fill="#ff00ff" d="m545.2913 191.18898l235.71655 0l0 64.62991l-235.71655 0z" fill-rule="evenodd"/><path fill="#000000" d="m555.4476 221.82773l-0.1875 -1.53125q0.546875 0.140625 0.9375 0.140625q0.546875 0 0.875 -0.1875q0.328125 -0.171875 0.546875 -0.5q0.15625 -0.25 0.5 -1.21875q0.046875 -0.140625 0.140625 -0.40625l-3.671875 -9.6875l1.765625 0l2.015625 5.59375q0.390625 1.078125 0.703125 2.25q0.28125 -1.125 0.671875 -2.203125l2.078125 -5.640625l1.640625 0l-3.6875 9.828125q-0.59375 1.609375 -0.921875 2.203125q-0.4375 0.8125 -1.0 1.1875q-0.5625 0.375 -1.34375 0.375q-0.484375 0 -1.0625 -0.203125zm8.796875 -8.5625q0 -2.6875 1.484375 -3.96875q1.25 -1.078125 3.046875 -1.078125q2.0 0 3.265625 1.3125q1.265625 1.296875 1.265625 3.609375q0 1.859375 -0.5625 2.9375q-0.5625 1.0625 -1.640625 1.65625q-1.0625 0.59375 -2.328125 0.59375q-2.03125 0 -3.28125 -1.296875q-1.25 -1.3125 -1.25 -3.765625zm1.6875 0q0 1.859375 0.796875 2.796875q0.8125 0.921875 2.046875 0.921875q1.21875 0 2.03125 -0.921875q0.8125 -0.9375 0.8125 -2.84375q0 -1.796875 -0.8125 -2.71875q-0.8125 -0.921875 -2.03125 -0.921875q-1.234375 0 -2.046875 0.921875q-0.796875 0.90625 -0.796875 2.765625zm15.625732 4.84375l0 -1.421875q-1.125 1.640625 -3.0625 1.640625q-0.859375 0 -1.609375 -0.328125q-0.734375 -0.328125 -1.09375 -0.828125q-0.359375 -0.5 -0.5 -1.21875q-0.109375 -0.46875 -0.109375 -1.53125l0 -5.984375l1.640625 0l0 5.359375q0 1.28125 0.109375 1.734375q0.15625 0.640625 0.65625 1.015625q0.5 0.375 1.234375 0.375q0.734375 0 1.375 -0.375q0.65625 -0.390625 0.921875 -1.03125q0.265625 -0.65625 0.265625 -1.890625l0 -5.1875l1.640625 0l0 9.671875l-1.46875 0zm15.543396 -3.546875l1.609375 0.21875q-0.265625 1.65625 -1.359375 2.609375q-1.078125 0.9375 -2.671875 0.9375q-1.984375 0 -3.1875 -1.296875q-1.203125 -1.296875 -1.203125 -3.71875q0 -1.578125 0.515625 -2.75q0.515625 -1.171875 1.578125 -1.75q1.0625 -0.59375 2.3125 -0.59375q1.578125 0 2.578125 0.796875q1.0 0.796875 1.28125 2.265625l-1.59375 0.234375q-0.234375 -0.96875 -0.8125 -1.453125q-0.578125 -0.5 -1.390625 -0.5q-1.234375 0 -2.015625 0.890625q-0.78125 0.890625 -0.78125 2.8125q0 1.953125 0.75 2.84375q0.75 0.875 1.953125 0.875q0.96875 0 1.609375 -0.59375q0.65625 -0.59375 0.828125 -1.828125zm9.328125 2.359375q-0.921875 0.765625 -1.765625 1.09375q-0.828125 0.3125 -1.796875 0.3125q-1.59375 0 -2.453125 -0.78125q-0.859375 -0.78125 -0.859375 -1.984375q0 -0.71875 0.328125 -1.296875q0.328125 -0.59375 0.84375 -0.9375q0.53125 -0.359375 1.1875 -0.546875q0.46875 -0.125 1.453125 -0.25q1.984375 -0.234375 2.921875 -0.5625q0.015625 -0.34375 0.015625 -0.421875q0 -1.0 -0.46875 -1.421875q-0.625 -0.546875 -1.875 -0.546875q-1.15625 0 -1.703125 0.40625q-0.546875 0.40625 -0.8125 1.421875l-1.609375 -0.21875q0.21875 -1.015625 0.71875 -1.640625q0.5 -0.640625 1.453125 -0.984375q0.953125 -0.34375 2.1875 -0.34375q1.25 0 2.015625 0.296875q0.78125 0.28125 1.140625 0.734375q0.375 0.4375 0.515625 1.109375q0.078125 0.421875 0.078125 1.515625l0 2.1875q0 2.28125 0.109375 2.890625q0.109375 0.59375 0.40625 1.15625l-1.703125 0q-0.265625 -0.515625 -0.328125 -1.1875zm-0.140625 -3.671875q-0.890625 0.375 -2.671875 0.625q-1.015625 0.140625 -1.4375 0.328125q-0.421875 0.1875 -0.65625 0.53125q-0.21875 0.34375 -0.21875 0.78125q0 0.65625 0.5 1.09375q0.5 0.4375 1.453125 0.4375q0.9375 0 1.671875 -0.40625q0.75 -0.421875 1.09375 -1.140625q0.265625 -0.5625 0.265625 -1.640625l0 -0.609375zm4.2038574 4.859375l0 -9.671875l1.46875 0l0 1.375q1.0625 -1.59375 3.078125 -1.59375q0.875 0 1.609375 0.3125q0.734375 0.3125 1.09375 0.828125q0.375 0.5 0.515625 1.203125q0.09375 0.453125 0.09375 1.59375l0 5.953125l-1.640625 0l0 -5.890625q0 -1.0 -0.203125 -1.484375q-0.1875 -0.5 -0.671875 -0.796875q-0.484375 -0.296875 -1.140625 -0.296875q-1.046875 0 -1.8125 0.671875q-0.75 0.65625 -0.75 2.515625l0 5.28125l-1.640625 0zm14.902771 -2.890625l1.625 -0.25q0.125 0.96875 0.75 1.5q0.625 0.515625 1.75 0.515625q1.125 0 1.671875 -0.453125q0.546875 -0.46875 0.546875 -1.09375q0 -0.546875 -0.484375 -0.875q-0.328125 -0.21875 -1.671875 -0.546875q-1.8125 -0.46875 -2.515625 -0.796875q-0.6875 -0.328125 -1.046875 -0.90625q-0.359375 -0.59375 -0.359375 -1.3125q0 -0.640625 0.296875 -1.1875q0.296875 -0.5625 0.8125 -0.921875q0.375 -0.28125 1.03125 -0.46875q0.671875 -0.203125 1.421875 -0.203125q1.140625 0 2.0 0.328125q0.859375 0.328125 1.265625 0.890625q0.421875 0.5625 0.578125 1.5l-1.609375 0.21875q-0.109375 -0.75 -0.640625 -1.171875q-0.515625 -0.421875 -1.46875 -0.421875q-1.140625 0 -1.625 0.375q-0.46875 0.375 -0.46875 0.875q0 0.3125 0.1875 0.578125q0.203125 0.265625 0.640625 0.4375q0.234375 0.09375 1.4375 0.421875q1.75 0.453125 2.4375 0.75q0.6875 0.296875 1.078125 0.859375q0.390625 0.5625 0.390625 1.40625q0 0.828125 -0.484375 1.546875q-0.46875 0.71875 -1.375 1.125q-0.90625 0.390625 -2.046875 0.390625q-1.875 0 -2.875 -0.78125q-0.984375 -0.78125 -1.25 -2.328125zm16.296875 1.703125q-0.921875 0.765625 -1.765625 1.09375q-0.828125 0.3125 -1.796875 0.3125q-1.59375 0 -2.453125 -0.78125q-0.859375 -0.78125 -0.859375 -1.984375q0 -0.71875 0.328125 -1.296875q0.328125 -0.59375 0.84375 -0.9375q0.53125 -0.359375 1.1875 -0.546875q0.46875 -0.125 1.453125 -0.25q1.984375 -0.234375 2.921875 -0.5625q0.015625 -0.34375 0.015625 -0.421875q0 -1.0 -0.46875 -1.421875q-0.625 -0.546875 -1.875 -0.546875q-1.15625 0 -1.703125 0.40625q-0.546875 0.40625 -0.8125 1.421875l-1.609375 -0.21875q0.21875 -1.015625 0.71875 -1.640625q0.5 -0.640625 1.453125 -0.984375q0.953125 -0.34375 2.1875 -0.34375q1.25 0 2.015625 0.296875q0.78125 0.28125 1.140625 0.734375q0.375 0.4375 0.515625 1.109375q0.078125 0.421875 0.078125 1.515625l0 2.1875q0 2.28125 0.109375 2.890625q0.109375 0.59375 0.40625 1.15625l-1.703125 0q-0.265625 -0.515625 -0.328125 -1.1875zm-0.140625 -3.671875q-0.890625 0.375 -2.671875 0.625q-1.015625 0.140625 -1.4375 0.328125q-0.421875 0.1875 -0.65625 0.53125q-0.21875 0.34375 -0.21875 0.78125q0 0.65625 0.5 1.09375q0.5 0.4375 1.453125 0.4375q0.9375 0 1.671875 -0.40625q0.75 -0.421875 1.09375 -1.140625q0.265625 -0.5625 0.265625 -1.640625l0 -0.609375zm6.8913574 4.859375l-3.6875 -9.671875l1.734375 0l2.078125 5.796875q0.328125 0.9375 0.625 1.9375q0.203125 -0.765625 0.609375 -1.828125l2.140625 -5.90625l1.6875 0l-3.65625 9.671875l-1.53125 0zm13.265625 -3.109375l1.6875 0.203125q-0.40625 1.484375 -1.484375 2.3125q-1.078125 0.8125 -2.765625 0.8125q-2.125 0 -3.375 -1.296875q-1.234375 -1.3125 -1.234375 -3.671875q0 -2.453125 1.25 -3.796875q1.265625 -1.34375 3.265625 -1.34375q1.9375 0 3.15625 1.328125q1.234375 1.3125 1.234375 3.703125q0 0.15625 0 0.4375l-7.21875 0q0.09375 1.59375 0.90625 2.453125q0.8125 0.84375 2.015625 0.84375q0.90625 0 1.546875 -0.46875q0.640625 -0.484375 1.015625 -1.515625zm-5.390625 -2.65625l5.40625 0q-0.109375 -1.21875 -0.625 -1.828125q-0.78125 -0.953125 -2.03125 -0.953125q-1.125 0 -1.90625 0.765625q-0.765625 0.75 -0.84375 2.015625zm14.324646 5.765625l0 -13.359375l1.640625 0l0 4.796875q1.140625 -1.328125 2.890625 -1.328125q1.078125 0 1.859375 0.421875q0.796875 0.421875 1.140625 1.171875q0.34375 0.75 0.34375 2.171875l0 6.125l-1.640625 0l0 -6.125q0 -1.234375 -0.53125 -1.796875q-0.53125 -0.5625 -1.515625 -0.5625q-0.71875 0 -1.359375 0.390625q-0.640625 0.375 -0.921875 1.015625q-0.265625 0.640625 -0.265625 1.78125l0 5.296875l-1.640625 0zm10.375671 -11.46875l0 -1.890625l1.640625 0l0 1.890625l-1.640625 0zm0 11.46875l0 -9.671875l1.640625 0l0 9.671875l-1.640625 0zm4.1448364 0l0 -9.671875l1.46875 0l0 1.359375q0.453125 -0.71875 1.203125 -1.140625q0.765625 -0.4375 1.71875 -0.4375q1.078125 0 1.765625 0.453125q0.6875 0.4375 0.96875 1.234375q1.15625 -1.6875 2.984375 -1.6875q1.453125 0 2.21875 0.796875q0.78125 0.796875 0.78125 2.453125l0 6.640625l-1.640625 0l0 -6.09375q0 -0.984375 -0.15625 -1.40625q-0.15625 -0.4375 -0.578125 -0.703125q-0.421875 -0.265625 -0.984375 -0.265625q-1.015625 0 -1.6875 0.6875q-0.671875 0.671875 -0.671875 2.15625l0 5.625l-1.640625 0l0 -6.28125q0 -1.09375 -0.40625 -1.640625q-0.40625 -0.546875 -1.3125 -0.546875q-0.6875 0 -1.28125 0.359375q-0.59375 0.359375 -0.859375 1.0625q-0.25 0.703125 -0.25 2.03125l0 5.015625l-1.640625 0z" fill-rule="nonzero"/><path fill="#000000" d="m555.4476 244.22772l-0.1875 -1.53125q0.546875 0.140625 0.9375 0.140625q0.546875 0 0.875 -0.1875q0.328125 -0.171875 0.546875 -0.5q0.15625 -0.25 0.5 -1.21875q0.046875 -0.140625 0.140625 -0.40625l-3.671875 -9.6875l1.765625 0l2.015625 5.59375q0.390625 1.078125 0.703125 2.25q0.28125 -1.125 0.671875 -2.203125l2.078125 -5.640625l1.640625 0l-3.6875 9.828125q-0.59375 1.609375 -0.921875 2.203125q-0.4375 0.8125 -1.0 1.1875q-0.5625 0.375 -1.34375 0.375q-0.484375 0 -1.0625 -0.203125zm8.796875 -8.5625q0 -2.6875 1.484375 -3.96875q1.25 -1.078125 3.046875 -1.078125q2.0 0 3.265625 1.3125q1.265625 1.296875 1.265625 3.609375q0 1.859375 -0.5625 2.9375q-0.5625 1.0625 -1.640625 1.65625q-1.0625 0.59375 -2.328125 0.59375q-2.03125 0 -3.28125 -1.296875q-1.25 -1.3125 -1.25 -3.765625zm1.6875 0q0 1.859375 0.796875 2.796875q0.8125 0.921875 2.046875 0.921875q1.21875 0 2.03125 -0.921875q0.8125 -0.9375 0.8125 -2.84375q0 -1.796875 -0.8125 -2.71875q-0.8125 -0.921875 -2.03125 -0.921875q-1.234375 0 -2.046875 0.921875q-0.796875 0.90625 -0.796875 2.765625zm15.625732 4.84375l0 -1.421875q-1.125 1.640625 -3.0625 1.640625q-0.859375 0 -1.609375 -0.328125q-0.734375 -0.328125 -1.09375 -0.828125q-0.359375 -0.5 -0.5 -1.21875q-0.109375 -0.46875 -0.109375 -1.53125l0 -5.984375l1.640625 0l0 5.359375q0 1.28125 0.109375 1.734375q0.15625 0.640625 0.65625 1.015625q0.5 0.375 1.234375 0.375q0.734375 0 1.375 -0.375q0.65625 -0.390625 0.921875 -1.03125q0.265625 -0.65625 0.265625 -1.890625l0 -5.1875l1.640625 0l0 9.671875l-1.46875 0zm15.543396 -3.546875l1.609375 0.21875q-0.265625 1.65625 -1.359375 2.609375q-1.078125 0.9375 -2.671875 0.9375q-1.984375 0 -3.1875 -1.296875q-1.203125 -1.296875 -1.203125 -3.71875q0 -1.578125 0.515625 -2.75q0.515625 -1.171875 1.578125 -1.75q1.0625 -0.59375 2.3125 -0.59375q1.578125 0 2.578125 0.796875q1.0 0.796875 1.28125 2.265625l-1.59375 0.234375q-0.234375 -0.96875 -0.8125 -1.453125q-0.578125 -0.5 -1.390625 -0.5q-1.234375 0 -2.015625 0.890625q-0.78125 0.890625 -0.78125 2.8125q0 1.953125 0.75 2.84375q0.75 0.875 1.953125 0.875q0.96875 0 1.609375 -0.59375q0.65625 -0.59375 0.828125 -1.828125zm9.328125 2.359375q-0.921875 0.765625 -1.765625 1.09375q-0.828125 0.3125 -1.796875 0.3125q-1.59375 0 -2.453125 -0.78125q-0.859375 -0.78125 -0.859375 -1.984375q0 -0.71875 0.328125 -1.296875q0.328125 -0.59375 0.84375 -0.9375q0.53125 -0.359375 1.1875 -0.546875q0.46875 -0.125 1.453125 -0.25q1.984375 -0.234375 2.921875 -0.5625q0.015625 -0.34375 0.015625 -0.421875q0 -1.0 -0.46875 -1.421875q-0.625 -0.546875 -1.875 -0.546875q-1.15625 0 -1.703125 0.40625q-0.546875 0.40625 -0.8125 1.421875l-1.609375 -0.21875q0.21875 -1.015625 0.71875 -1.640625q0.5 -0.640625 1.453125 -0.984375q0.953125 -0.34375 2.1875 -0.34375q1.25 0 2.015625 0.296875q0.78125 0.28125 1.140625 0.734375q0.375 0.4375 0.515625 1.109375q0.078125 0.421875 0.078125 1.515625l0 2.1875q0 2.28125 0.109375 2.890625q0.109375 0.59375 0.40625 1.15625l-1.703125 0q-0.265625 -0.515625 -0.328125 -1.1875zm-0.140625 -3.671875q-0.890625 0.375 -2.671875 0.625q-1.015625 0.140625 -1.4375 0.328125q-0.421875 0.1875 -0.65625 0.53125q-0.21875 0.34375 -0.21875 0.78125q0 0.65625 0.5 1.09375q0.5 0.4375 1.453125 0.4375q0.9375 0 1.671875 -0.40625q0.75 -0.421875 1.09375 -1.140625q0.265625 -0.5625 0.265625 -1.640625l0 -0.609375zm4.2038574 4.859375l0 -9.671875l1.46875 0l0 1.375q1.0625 -1.59375 3.078125 -1.59375q0.875 0 1.609375 0.3125q0.734375 0.3125 1.09375 0.828125q0.375 0.5 0.515625 1.203125q0.09375 0.453125 0.09375 1.59375l0 5.953125l-1.640625 0l0 -5.890625q0 -1.0 -0.203125 -1.484375q-0.1875 -0.5 -0.671875 -0.796875q-0.484375 -0.296875 -1.140625 -0.296875q-1.046875 0 -1.8125 0.671875q-0.75 0.65625 -0.75 2.515625l0 5.28125l-1.640625 0zm17.340271 0l-2.96875 -9.671875l1.703125 0l1.53125 5.578125l0.578125 2.078125q0.046875 -0.15625 0.5 -2.0l1.546875 -5.65625l1.6875 0l1.4375 5.609375l0.484375 1.84375l0.5625 -1.859375l1.65625 -5.59375l1.59375 0l-3.03125 9.671875l-1.703125 0l-1.53125 -5.796875l-0.375 -1.640625l-1.953125 7.4375l-1.71875 0zm11.691711 -11.46875l0 -1.890625l1.640625 0l0 1.890625l-1.640625 0zm0 11.46875l0 -9.671875l1.640625 0l0 9.671875l-1.640625 0zm4.1447754 0l0 -9.671875l1.46875 0l0 1.375q1.0625 -1.59375 3.078125 -1.59375q0.875 0 1.609375 0.3125q0.734375 0.3125 1.09375 0.828125q0.375 0.5 0.515625 1.203125q0.09375 0.453125 0.09375 1.59375l0 5.953125l-1.640625 0l0 -5.890625q0 -1.0 -0.203125 -1.484375q-0.1875 -0.5 -0.671875 -0.796875q-0.484375 -0.296875 -1.140625 -0.296875q-1.046875 0 -1.8125 0.671875q-0.75 0.65625 -0.75 2.515625l0 5.28125l-1.640625 0zm19.137146 -1.46875l0.234375 1.453125q-0.6875 0.140625 -1.234375 0.140625q-0.890625 0 -1.390625 -0.28125q-0.484375 -0.28125 -0.6875 -0.734375q-0.203125 -0.46875 -0.203125 -1.9375l0 -5.578125l-1.203125 0l0 -1.265625l1.203125 0l0 -2.390625l1.625 -0.984375l0 3.375l1.65625 0l0 1.265625l-1.65625 0l0 5.671875q0 0.6875 0.078125 0.890625q0.09375 0.203125 0.28125 0.328125q0.203125 0.109375 0.578125 0.109375q0.265625 0 0.71875 -0.0625zm1.6052246 1.46875l0 -13.359375l1.640625 0l0 4.796875q1.140625 -1.328125 2.890625 -1.328125q1.078125 0 1.859375 0.421875q0.796875 0.421875 1.140625 1.171875q0.34375 0.75 0.34375 2.171875l0 6.125l-1.640625 0l0 -6.125q0 -1.234375 -0.53125 -1.796875q-0.53125 -0.5625 -1.515625 -0.5625q-0.71875 0 -1.359375 0.390625q-0.640625 0.375 -0.921875 1.015625q-0.265625 0.640625 -0.265625 1.78125l0 5.296875l-1.640625 0zm17.000671 -3.109375l1.6875 0.203125q-0.40625 1.484375 -1.484375 2.3125q-1.078125 0.8125 -2.765625 0.8125q-2.125 0 -3.375 -1.296875q-1.234375 -1.3125 -1.234375 -3.671875q0 -2.453125 1.25 -3.796875q1.265625 -1.34375 3.265625 -1.34375q1.9375 0 3.15625 1.328125q1.234375 1.3125 1.234375 3.703125q0 0.15625 0 0.4375l-7.21875 0q0.09375 1.59375 0.90625 2.453125q0.8125 0.84375 2.015625 0.84375q0.90625 0 1.546875 -0.46875q0.640625 -0.484375 1.015625 -1.515625zm-5.390625 -2.65625l5.40625 0q-0.109375 -1.21875 -0.625 -1.828125q-0.78125 -0.953125 -2.03125 -0.953125q-1.125 0 -1.90625 0.765625q-0.765625 0.75 -0.84375 2.015625zm13.668396 2.875l1.625 -0.25q0.125 0.96875 0.75 1.5q0.625 0.515625 1.75 0.515625q1.125 0 1.671875 -0.453125q0.546875 -0.46875 0.546875 -1.09375q0 -0.546875 -0.484375 -0.875q-0.328125 -0.21875 -1.671875 -0.546875q-1.8125 -0.46875 -2.515625 -0.796875q-0.6875 -0.328125 -1.046875 -0.90625q-0.359375 -0.59375 -0.359375 -1.3125q0 -0.640625 0.296875 -1.1875q0.296875 -0.5625 0.8125 -0.921875q0.375 -0.28125 1.03125 -0.46875q0.671875 -0.203125 1.421875 -0.203125q1.140625 0 2.0 0.328125q0.859375 0.328125 1.265625 0.890625q0.421875 0.5625 0.578125 1.5l-1.609375 0.21875q-0.109375 -0.75 -0.640625 -1.171875q-0.515625 -0.421875 -1.46875 -0.421875q-1.140625 0 -1.625 0.375q-0.46875 0.375 -0.46875 0.875q0 0.3125 0.1875 0.578125q0.203125 0.265625 0.640625 0.4375q0.234375 0.09375 1.4375 0.421875q1.75 0.453125 2.4375 0.75q0.6875 0.296875 1.078125 0.859375q0.390625 0.5625 0.390625 1.40625q0 0.828125 -0.484375 1.546875q-0.46875 0.71875 -1.375 1.125q-0.90625 0.390625 -2.046875 0.390625q-1.875 0 -2.875 -0.78125q-0.984375 -0.78125 -1.25 -2.328125zm9.984375 2.890625l0 -13.359375l1.640625 0l0 4.796875q1.140625 -1.328125 2.890625 -1.328125q1.078125 0 1.859375 0.421875q0.796875 0.421875 1.140625 1.171875q0.34375 0.75 0.34375 2.171875l0 6.125l-1.640625 0l0 -6.125q0 -1.234375 -0.53125 -1.796875q-0.53125 -0.5625 -1.515625 -0.5625q-0.71875 0 -1.359375 0.390625q-0.640625 0.375 -0.921875 1.015625q-0.265625 0.640625 -0.265625 1.78125l0 5.296875l-1.640625 0zm9.766357 -4.84375q0 -2.6875 1.484375 -3.96875q1.25 -1.078125 3.046875 -1.078125q2.0 0 3.265625 1.3125q1.265625 1.296875 1.265625 3.609375q0 1.859375 -0.5625 2.9375q-0.5625 1.0625 -1.640625 1.65625q-1.0625 0.59375 -2.328125 0.59375q-2.03125 0 -3.28125 -1.296875q-1.25 -1.3125 -1.25 -3.765625zm1.6875 0q0 1.859375 0.796875 2.796875q0.8125 0.921875 2.046875 0.921875q1.21875 0 2.03125 -0.921875q0.8125 -0.9375 0.8125 -2.84375q0 -1.796875 -0.8125 -2.71875q-0.8125 -0.921875 -2.03125 -0.921875q-1.234375 0 -2.046875 0.921875q-0.796875 0.90625 -0.796875 2.765625zm11.078857 4.84375l-2.96875 -9.671875l1.703125 0l1.53125 5.578125l0.578125 2.078125q0.046875 -0.15625 0.5 -2.0l1.546875 -5.65625l1.6875 0l1.4375 5.609375l0.484375 1.84375l0.5625 -1.859375l1.65625 -5.59375l1.59375 0l-3.03125 9.671875l-1.703125 0l-1.53125 -5.796875l-0.375 -1.640625l-1.953125 7.4375l-1.71875 0z" fill-rule="nonzero"/><path fill="#ff00ff" d="m64.33596 120.2336l415.65353 0l0 158.3622l-415.65353 0z" fill-rule="evenodd"/><path fill="#ffffff" d="m73.33596 129.2336l382.4862 0l0 68.79999l-382.4862 0l0 -68.79999z" fill-rule="nonzero"/><path fill="#000000" fill-opacity="0.0" d="m73.33596 132.37596l382.4862 0l0 65.92174l-382.4862 0l0 -65.92174z" fill-rule="nonzero"/><path fill="#000000" d="m88.73231 195.61734l0 -5.09375l32.6875 0l0 5.09375l-32.6875 0zm47.81077 0l0 -5.09375l32.6875 0l0 5.09375l-32.6875 0zm47.810776 0l0 -5.09375l32.6875 0l0 5.09375l-32.6875 0zm47.810776 0l0 -5.09375l32.687515 0l0 5.09375l-32.687515 0zm47.810776 0l0 -5.09375l32.6875 0l0 5.09375l-32.6875 0zm47.81079 0l0 -5.09375l32.6875 0l0 5.09375l-32.6875 0zm47.81076 0l0 -5.09375l32.6875 0l0 5.09375l-32.6875 0zm47.81079 0l0 -5.09375l32.6875 0l0 5.09375l-32.6875 0z" fill-rule="nonzero"/><path fill="#000000" fill-opacity="0.0" d="m455.82217 132.37596l0 0l0 65.92174l0 0l0 -65.92174z" fill-rule="nonzero"/><path fill="#ffffff" d="m73.33596 198.03358l376.076 0l0 68.8l-376.076 0l0 -68.8z" fill-rule="nonzero"/><path fill="#000000" fill-opacity="0.0" d="m73.33596 201.17595l15.927597 0l0 65.92174l-15.927597 0l0 -65.92174z" fill-rule="nonzero"/><path fill="#010000" fill-opacity="0.0" d="m89.26356 201.17595l31.883179 0l0 65.92174l-31.883179 0l0 -65.92174z" fill-rule="nonzero"/><path fill="#000000" d="m111.82606 253.07358l-7.859375 0l0 -29.640625q-4.3125 4.03125 -10.171875 5.953125l0 -7.125q3.078125 -1.015625 6.6875 -3.828125q3.609375 -2.8125 4.953125 -6.5625l6.390625 0l0 41.203125z" fill-rule="nonzero"/><path fill="#000000" fill-opacity="0.0" d="m121.146736 201.17595l15.927589 0l0 65.92174l-15.927589 0l0 -65.92174z" fill-rule="nonzero"/><path fill="#010000" fill-opacity="0.0" d="m137.07433 201.17595l31.883179 0l0 65.92174l-31.883179 0l0 -65.92174z" fill-rule="nonzero"/><path fill="#000000" d="m154.9337 253.07358l0 -8.25l-16.796875 0l0 -6.890625l17.796875 -26.0625l6.609375 0l0 26.03125l5.09375 0l0 6.921875l-5.09375 0l0 8.25l-7.609375 0zm0 -15.171875l0 -14.03125l-9.4375 14.03125l9.4375 0z" fill-rule="nonzero"/><path fill="#000000" fill-opacity="0.0" d="m168.9575 201.17595l15.927597 0l0 65.92174l-15.927597 0l0 -65.92174z" fill-rule="nonzero"/><path fill="#010000" fill-opacity="0.0" d="m184.8851 201.17595l31.883179 0l0 65.92174l-31.883179 0l0 -65.92174z" fill-rule="nonzero"/><path fill="#000000" d="m213.8851 245.76108l0 7.3125l-27.578125 0q0.453125 -4.140625 2.6875 -7.84375q2.25 -3.71875 8.84375 -9.84375q5.328125 -4.953125 6.53125 -6.71875q1.625 -2.4375 1.625 -4.8125q0 -2.640625 -1.421875 -4.046875q-1.40625 -1.421875 -3.90625 -1.421875q-2.453125 0 -3.921875 1.484375q-1.453125 1.484375 -1.671875 4.9375l-7.84375 -0.796875q0.703125 -6.484375 4.390625 -9.3125q3.703125 -2.828125 9.25 -2.828125q6.078125 0 9.546875 3.28125q3.46875 3.265625 3.46875 8.140625q0 2.765625 -1.0 5.28125q-0.984375 2.5 -3.140625 5.234375q-1.4375 1.828125 -5.15625 5.25q-3.71875 3.40625 -4.71875 4.53125q-0.984375 1.109375 -1.609375 2.171875l15.625 0z" fill-rule="nonzero"/><path fill="#000000" fill-opacity="0.0" d="m216.76828 201.17595l15.927597 0l0 65.92174l-15.927597 0l0 -65.92174z" fill-rule="nonzero"/><path fill="#010000" fill-opacity="0.0" d="m232.69588 201.17595l31.883194 0l0 65.92174l-31.883194 0l0 -65.92174z" fill-rule="nonzero"/><path fill="#000000" d="m235.24275 242.5267l7.84375 -0.8125q0.328125 2.65625 1.984375 4.21875q1.65625 1.546875 3.796875 1.546875q2.46875 0 4.171875 -2.0q1.71875 -2.0 1.71875 -6.03125q0 -3.78125 -1.703125 -5.671875q-1.6875 -1.890625 -4.40625 -1.890625q-3.390625 0 -6.078125 3.0l-6.375 -0.9375l4.03125 -21.359375l20.79689 0l0 7.375l-14.82814 0l-1.234375 6.96875q2.625 -1.3125 5.375 -1.3125q5.234375 0 8.85939 3.8125q3.640625 3.796875 3.640625 9.875q0 5.0625 -2.9375 9.03125q-4.0000153 5.4375 -11.10939 5.4375q-5.6875 0 -9.265625 -3.046875q-3.578125 -3.0625 -4.28125 -8.203125z" fill-rule="nonzero"/><path fill="#000000" fill-opacity="0.0" d="m264.57907 201.17595l15.927582 0l0 65.92174l-15.927582 0l0 -65.92174z" fill-rule="nonzero"/><path fill="#010000" fill-opacity="0.0" d="m280.50665 201.17595l31.883179 0l0 65.92174l-31.883179 0l0 -65.92174z" fill-rule="nonzero"/><path fill="#000000" d="m282.6629 242.18295l7.609375 -0.921875q0.375 2.90625 1.96875 4.453125q1.59375 1.53125 3.859375 1.53125q2.4375 0 4.09375 -1.84375q1.671875 -1.84375 1.671875 -4.984375q0 -2.96875 -1.59375 -4.703125q-1.59375 -1.734375 -3.890625 -1.734375q-1.515625 0 -3.609375 0.59375l0.859375 -6.40625q3.1875 0.078125 4.859375 -1.390625q1.6875 -1.46875 1.6875 -3.90625q0 -2.078125 -1.234375 -3.296875q-1.21875 -1.234375 -3.265625 -1.234375q-2.015625 0 -3.453125 1.40625q-1.421875 1.390625 -1.71875 4.078125l-7.25 -1.234375q0.75 -3.71875 2.265625 -5.9375q1.53125 -2.234375 4.265625 -3.5q2.734375 -1.28125 6.109375 -1.28125q5.796875 0 9.296875 3.6875q2.890625 3.03125 2.890625 6.84375q0 5.390625 -5.90625 8.609375q3.515625 0.765625 5.625 3.390625q2.125 2.625 2.125 6.359375q0 5.390625 -3.953125 9.203125q-3.9375 3.8125 -9.828125 3.8125q-5.5625 0 -9.234375 -3.203125q-3.65625 -3.203125 -4.25 -8.390625z" fill-rule="nonzero"/><path fill="#000000" fill-opacity="0.0" d="m312.38983 201.17595l15.927612 0l0 65.92174l-15.927612 0l0 -65.92174z" fill-rule="nonzero"/><path fill="#010000" fill-opacity="0.0" d="m328.31744 201.17595l73.28372 0l0 65.92174l-73.28372 0l0 -65.92174z" fill-rule="nonzero"/><path fill="#000000" d="m332.52057 212.04233l16.40625 0q4.859375 0 7.25 0.40625q2.40625 0.40625 4.28125 1.6875q1.890625 1.28125 3.15625 3.4375q1.265625 2.140625 1.265625 4.796875q0 2.875 -1.5625 5.28125q-1.546875 2.40625 -4.203125 3.609375q3.75 1.09375 5.765625 3.734375q2.015625 2.625 2.015625 6.1875q0 2.796875 -1.3125 5.4375q-1.296875 2.640625 -3.546875 4.234375q-2.25 1.578125 -5.5625 1.9375q-2.0625 0.21875 -9.984375 0.28125l-13.96875 0l0 -41.03125zm8.28125 6.828125l0 9.484375l5.4375 0q4.828125 0 6.015625 -0.140625q2.125 -0.25 3.34375 -1.46875q1.21875 -1.21875 1.21875 -3.203125q0 -1.90625 -1.0625 -3.09375q-1.046875 -1.1875 -3.109375 -1.4375q-1.234375 -0.140625 -7.078125 -0.140625l-4.765625 0zm0 16.3125l0 10.96875l7.671875 0q4.484375 0 5.6875 -0.25q1.84375 -0.328125 3.0 -1.625q1.15625 -1.3125 1.15625 -3.484375q0 -1.859375 -0.890625 -3.140625q-0.890625 -1.296875 -2.59375 -1.875q-1.6875 -0.59375 -7.34375 -0.59375l-6.6875 0zm44.650543 -23.3125q5.953125 0 9.3125 4.25q4.015625 5.046875 4.015625 16.71875q0 11.640625 -4.03125 16.734375q-3.34375 4.203125 -9.296875 4.203125q-6.0 0 -9.671875 -4.609375q-3.65625 -4.609375 -3.65625 -16.421875q0 -11.578125 4.03125 -16.671875q3.328125 -4.203125 9.296875 -4.203125zm0 6.515625q-1.4375 0 -2.5625 0.921875q-1.109375 0.90625 -1.71875 3.25q-0.8125 3.0625 -0.8125 10.28125q0 7.21875 0.71875 9.921875q0.734375 2.703125 1.828125 3.59375q1.109375 0.890625 2.546875 0.890625q1.421875 0 2.546875 -0.90625q1.125 -0.90625 1.734375 -3.265625q0.8125 -3.015625 0.8125 -10.234375q0 -7.21875 -0.734375 -9.921875q-0.71875 -2.703125 -1.828125 -3.609375q-1.109375 -0.921875 -2.53125 -0.921875z" fill-rule="nonzero"/><path fill="#000000" fill-opacity="0.0" d="m401.60117 201.17595l15.927612 0l0 65.92174l-15.927612 0l0 -65.92174z" fill-rule="nonzero"/><path fill="#010000" fill-opacity="0.0" d="m417.52878 201.17595l31.883179 0l0 65.92174l-31.883179 0l0 -65.92174z" fill-rule="nonzero"/><path fill="#000000" d="m419.96628 219.9017l0 -7.3125l26.890625 0l0 5.71875q-3.328125 3.28125 -6.765625 9.40625q-3.4375 6.125 -5.25 13.03125q-1.8125 6.890625 -1.78125 12.328125l-7.578125 0q0.1875 -8.515625 3.5 -17.359375q3.328125 -8.84375 8.875 -15.8125l-17.890625 0z" fill-rule="nonzero"/><path fill="#010000" fill-opacity="0.0" d="m449.41196 201.17595l15.927612 0l0 65.92174l-15.927612 0l0 -65.92174z" fill-rule="nonzero"/><path fill="#010000" fill-opacity="0.0" d="m465.33957 201.17595l0 0l0 65.92174l0 0l0 -65.92174z" fill-rule="nonzero"/><path fill="#000000" fill-opacity="0.0" d="m138.16536 385.3832l222.55116 0l0 42.015747l-222.55116 0z" fill-rule="evenodd"/><path fill="#000000" fill-opacity="0.0" d="m429.8924 138.18898l76.85037 0l0 42.015747l-76.85037 0z" fill-rule="evenodd"/><path fill="#000000" d="m440.36115 165.10898l0 -13.359375l9.65625 0l0 1.578125l-7.875 0l0 4.09375l7.375 0l0 1.5625l-7.375 0l0 4.546875l8.1875 0l0 1.578125l-9.96875 0z" fill-rule="nonzero"/><path fill="#ff00ff" d="m64.33596 285.82678l823.3701 0l0 158.36218l-823.3701 0z" fill-rule="evenodd"/><path fill="#ffffff" d="m73.33596 294.82678l146.48288 0l0 68.79999l-146.48288 0l0 -68.79999z" fill-rule="nonzero"/><path fill="#000000" fill-opacity="0.0" d="m73.33596 297.96915l146.48288 0l0 65.92172l-146.48288 0l0 -65.92172z" fill-rule="nonzero"/><path fill="#000000" d="m77.539085 349.86676l0 -41.03125l8.28125 0l0 16.140625l16.234375 0l0 -16.140625l8.28125 0l0 41.03125l-8.28125 0l0 -17.9375l-16.234375 0l0 17.9375l-8.28125 0zm41.119293 0l0 -41.03125l8.28125 0l0 41.03125l-8.28125 0zm16.255714 0l0 -41.03125l8.0625 0l16.796875 27.40625l0 -27.40625l7.703125 0l0 41.03125l-8.3125 0l-16.546875 -26.765625l0 26.765625l-7.703125 0zm50.556793 0l0 -34.09375l-12.171875 0l0 -6.9375l32.609375 0l0 6.9375l-12.15625 0l0 34.09375l-8.28125 0zm20.882248 -21.859375l0 -7.875l7.875 0l0 7.875l-7.875 0zm0 21.859375l0 -7.859375l7.875 0l0 7.859375l-7.875 0z" fill-rule="nonzero"/><path fill="#000000" fill-opacity="0.0" d="m219.81885 297.96915l0 0l0 65.92172l0 0l0 -65.92172z" fill-rule="nonzero"/><path fill="#ffffff" d="m73.33596 363.62677l748.51294 0l0 68.79999l-748.51294 0l0 -68.79999z" fill-rule="nonzero"/><path fill="#000000" fill-opacity="0.0" d="m73.33596 366.76913l748.51294 0l0 65.92175l-748.51294 0l0 -65.92175z" fill-rule="nonzero"/><path fill="#000000" d="m91.08596 388.93237l0 6.28125l-5.375 0l0 11.96875q0 3.640625 0.15625 4.25q0.15625 0.59375 0.6875 1.0q0.546875 0.390625 1.34375 0.390625q1.078125 0 3.15625 -0.765625l0.671875 6.109375q-2.75 1.171875 -6.21875 1.171875q-2.125 0 -3.828125 -0.703125q-1.703125 -0.71875 -2.515625 -1.84375q-0.796875 -1.140625 -1.09375 -3.078125q-0.25 -1.375 -0.25 -5.546875l0 -12.953125l-3.609375 0l0 -6.28125l3.609375 0l0 -5.90625l7.890625 -4.578125l0 10.484375l5.375 0zm13.2938385 -11.296875l0 15.078125q3.8125 -4.453125 9.09375 -4.453125q2.71875 0 4.890625 1.015625q2.1875 1.0 3.296875 2.578125q1.109375 1.5625 1.515625 3.46875q0.40625 1.90625 0.40625 5.90625l0 17.4375l-7.859375 0l0 -15.703125q0 -4.671875 -0.453125 -5.921875q-0.453125 -1.265625 -1.59375 -2.0q-1.125 -0.75 -2.828125 -0.75q-1.96875 0 -3.515625 0.953125q-1.53125 0.9375 -2.25 2.859375q-0.703125 1.921875 -0.703125 5.671875l0 14.890625l-7.859375 0l0 -41.03125l7.859375 0zm44.393303 31.5625l7.84375 1.328125q-1.515625 4.3125 -4.78125 6.5625q-3.25 2.25 -8.15625 2.25q-7.75 0 -11.46875 -5.0625q-2.953125 -4.0625 -2.953125 -10.25q0 -7.390625 3.859375 -11.578125q3.875 -4.1875 9.78125 -4.1875q6.625 0 10.453125 4.390625q3.84375 4.375 3.6875 13.421875l-19.71875 0q0.09375 3.5 1.90625 5.453125q1.828125 1.9375 4.53125 1.9375q1.859375 0 3.109375 -1.0q1.265625 -1.015625 1.90625 -3.265625zm0.453125 -7.9375q-0.09375 -3.421875 -1.78125 -5.1875q-1.671875 -1.78125 -4.078125 -1.78125q-2.5625 0 -4.25 1.875q-1.671875 1.875 -1.65625 5.09375l11.765625 0zm28.3264 2.125q0 -3.921875 1.921875 -7.578125q1.9375 -3.671875 5.46875 -5.609375q3.546875 -1.9375 7.921875 -1.9375q6.75 0 11.046875 4.390625q4.3125 4.375 4.3125 11.0625q0 6.75 -4.359375 11.1875q-4.34375 4.4375 -10.953125 4.4375q-4.078125 0 -7.796875 -1.84375q-3.703125 -1.84375 -5.640625 -5.40625q-1.921875 -3.578125 -1.921875 -8.703125zm8.0625 0.421875q0 4.421875 2.09375 6.78125q2.109375 2.34375 5.1875 2.34375q3.078125 0 5.15625 -2.34375q2.09375 -2.359375 2.09375 -6.84375q0 -4.359375 -2.09375 -6.703125q-2.078125 -2.359375 -5.15625 -2.359375q-3.078125 0 -5.1875 2.359375q-2.09375 2.34375 -2.09375 6.765625zm55.815186 14.859375l-7.859375 0l0 -15.171875q0 -4.8125 -0.515625 -6.21875q-0.5 -1.421875 -1.640625 -2.203125q-1.125 -0.78125 -2.71875 -0.78125q-2.046875 0 -3.671875 1.125q-1.625 1.109375 -2.234375 2.953125q-0.59375 1.84375 -0.59375 6.828125l0 13.46875l-7.859375 0l0 -29.734375l7.296875 0l0 4.375q3.890625 -5.046875 9.796875 -5.046875q2.609375 0 4.765625 0.9375q2.15625 0.9375 3.25 2.40625q1.109375 1.453125 1.546875 3.296875q0.4375 1.84375 0.4375 5.296875l0 18.46875zm25.1902 -9.46875l7.84375 1.328125q-1.515625 4.3125 -4.78125 6.5625q-3.25 2.25 -8.15625 2.25q-7.7500153 0 -11.468765 -5.0625q-2.953125 -4.0625 -2.953125 -10.25q0 -7.390625 3.859375 -11.578125q3.875 -4.1875 9.781265 -4.1875q6.625 0 10.453125 4.390625q3.84375 4.375 3.6875 13.421875l-19.718765 0q0.09375 3.5 1.9062653 5.453125q1.828125 1.9375 4.53125 1.9375q1.859375 0 3.109375 -1.0q1.265625 -1.015625 1.90625 -3.265625zm0.453125 -7.9375q-0.09375 -3.421875 -1.78125 -5.1875q-1.671875 -1.78125 -4.078125 -1.78125q-2.5625 0 -4.25 1.875q-1.6718903 1.875 -1.6562653 5.09375l11.76564 0zm11.445679 8.921875l7.890625 -1.203125q0.5 2.296875 2.046875 3.484375q1.546875 1.1875 4.3125 1.1875q3.046875 0 4.59375 -1.109375q1.03125 -0.796875 1.03125 -2.109375q0 -0.890625 -0.5625 -1.484375q-0.578125 -0.546875 -2.625 -1.03125q-9.515625 -2.09375 -12.0625 -3.828125q-3.53125 -2.40625 -3.53125 -6.703125q0 -3.859375 3.046875 -6.484375q3.046875 -2.640625 9.46875 -2.640625q6.09375 0 9.0625 2.0q2.96875 1.984375 4.09375 5.875l-7.421875 1.375q-0.484375 -1.734375 -1.8125 -2.65625q-1.328125 -0.9375 -3.78125 -0.9375q-3.109375 0 -4.453125 0.875q-0.90625 0.609375 -0.90625 1.59375q0 0.84375 0.796875 1.421875q1.0625 0.78125 7.34375 2.21875q6.28125 1.421875 8.78125 3.5q2.453125 2.09375 2.453125 5.84375q0 4.09375 -3.421875 7.03125q-3.40625 2.9375 -10.09375 2.9375q-6.078125 0 -9.625 -2.453125q-3.53125 -2.46875 -4.625 -6.703125zm64.21704 -21.25l0 6.28125l-5.375 0l0 11.96875q0 3.640625 0.15625 4.25q0.15625 0.59375 0.6875 1.0q0.546875 0.390625 1.34375 0.390625q1.078125 0 3.15625 -0.765625l0.671875 6.109375q-2.75 1.171875 -6.21875 1.171875q-2.125 0 -3.828125 -0.703125q-1.703125 -0.71875 -2.515625 -1.84375q-0.796875 -1.140625 -1.09375 -3.078125q-0.25 -1.375 -0.25 -5.546875l0 -12.953125l-3.609375 0l0 -6.28125l3.609375 0l0 -5.90625l7.890625 -4.578125l0 10.484375l5.375 0zm13.293823 -11.296875l0 15.078125q3.8125 -4.453125 9.09375 -4.453125q2.71875 0 4.890625 1.015625q2.1875 1.0 3.296875 2.578125q1.109375 1.5625 1.515625 3.46875q0.40625 1.90625 0.40625 5.90625l0 17.4375l-7.859375 0l0 -15.703125q0 -4.671875 -0.453125 -5.921875q-0.453125 -1.265625 -1.59375 -2.0q-1.125 -0.75 -2.828125 -0.75q-1.96875 0 -3.515625 0.953125q-1.53125 0.9375 -2.25 2.859375q-0.703125 1.921875 -0.703125 5.671875l0 14.890625l-7.859375 0l0 -41.03125l7.859375 0zm33.065186 20.375l-7.140625 -1.296875q1.203125 -4.296875 4.140625 -6.375q2.9375 -2.078125 8.734375 -2.078125q5.265625 0 7.828125 1.25q2.578125 1.25 3.625 3.171875q1.0625 1.90625 1.0625 7.03125l-0.09375 9.1875q0 3.921875 0.375 5.78125q0.390625 1.859375 1.421875 3.984375l-7.78125 0q-0.3125 -0.78125 -0.75 -2.328125q-0.203125 -0.6875 -0.28125 -0.921875q-2.015625 1.96875 -4.3125 2.953125q-2.296875 0.96875 -4.90625 0.96875q-4.59375 0 -7.234375 -2.484375q-2.640625 -2.5 -2.640625 -6.3125q0 -2.515625 1.203125 -4.484375q1.203125 -1.96875 3.375 -3.015625q2.171875 -1.0625 6.25 -1.84375q5.515625 -1.03125 7.640625 -1.9375l0 -0.78125q0 -2.265625 -1.125 -3.21875q-1.109375 -0.96875 -4.21875 -0.96875q-2.09375 0 -3.28125 0.828125q-1.171875 0.8125 -1.890625 2.890625zm10.515625 6.375q-1.515625 0.515625 -4.796875 1.21875q-3.265625 0.6875 -4.265625 1.359375q-1.546875 1.09375 -1.546875 2.78125q0 1.640625 1.234375 2.84375q1.234375 1.203125 3.140625 1.203125q2.125 0 4.046875 -1.390625q1.4375 -1.0625 1.875 -2.609375q0.3125 -1.0 0.3125 -3.828125l0 -1.578125zm29.117554 -15.453125l0 6.28125l-5.375 0l0 11.96875q0 3.640625 0.15625 4.25q0.15625 0.59375 0.6875 1.0q0.546875 0.390625 1.34375 0.390625q1.078125 0 3.15625 -0.765625l0.671875 6.109375q-2.75 1.171875 -6.21875 1.171875q-2.125 0 -3.828125 -0.703125q-1.703125 -0.71875 -2.515625 -1.84375q-0.796875 -1.140625 -1.09375 -3.078125q-0.25 -1.375 -0.25 -5.546875l0 -12.953125l-3.609375 0l0 -6.28125l3.609375 0l0 -5.90625l7.890625 -4.578125l0 10.484375l5.375 0zm28.908936 29.734375l-7.859375 0l0 -29.734375l7.296875 0l0 4.234375q1.875 -3.0 3.375 -3.953125q1.5 -0.953125 3.40625 -0.953125q2.6875 0 5.171875 1.484375l-2.421875 6.859375q-2.0 -1.28125 -3.703125 -1.28125q-1.65625 0 -2.8125 0.90625q-1.140625 0.90625 -1.796875 3.296875q-0.65625 2.375 -0.65625 9.953125l0 9.1875zm34.35669 0l0 -4.453125q-1.625 2.375 -4.28125 3.75q-2.640625 1.375 -5.578125 1.375q-3.0 0 -5.375 -1.3125q-2.375 -1.3125 -3.4375 -3.6875q-1.0625 -2.390625 -1.0625 -6.59375l0 -18.8125l7.859375 0l0 13.671875q0 6.265625 0.4375 7.6875q0.4375 1.40625 1.578125 2.234375q1.140625 0.828125 2.90625 0.828125q2.015625 0 3.609375 -1.109375q1.609375 -1.109375 2.1875 -2.75q0.59375 -1.640625 0.59375 -8.015625l0 -12.546875l7.859375 0l0 29.734375l-7.296875 0zm15.440186 0l0 -41.03125l7.8749695 0l0 41.03125l-7.8749695 0zm33.14633 -9.46875l7.84375 1.328125q-1.515625 4.3125 -4.78125 6.5625q-3.25 2.25 -8.15625 2.25q-7.75 0 -11.46875 -5.0625q-2.953125 -4.0625 -2.953125 -10.25q0 -7.390625 3.859375 -11.578125q3.875 -4.1875 9.78125 -4.1875q6.625 0 10.453125 4.390625q3.84375 4.375 3.6875 13.421875l-19.71875 0q0.09375 3.5 1.90625 5.453125q1.828125 1.9375 4.53125 1.9375q1.859375 0 3.109375 -1.0q1.265625 -1.015625 1.90625 -3.265625zm0.453125 -7.9375q-0.09375 -3.421875 -1.78125 -5.1875q-1.671875 -1.78125 -4.078125 -1.78125q-2.5625 0 -4.25 1.875q-1.671875 1.875 -1.65625 5.09375l11.765625 0zm43.77954 -12.328125l0 6.28125l-5.375 0l0 11.96875q0 3.640625 0.15625 4.25q0.15625 0.59375 0.6875 1.0q0.546875 0.390625 1.34375 0.390625q1.078125 0 3.15625 -0.765625l0.671875 6.109375q-2.75 1.171875 -6.21875 1.171875q-2.125 0 -3.828125 -0.703125q-1.703125 -0.71875 -2.515625 -1.84375q-0.796875 -1.140625 -1.09375 -3.078125q-0.25 -1.375 -0.25 -5.546875l0 -12.953125l-3.609375 0l0 -6.28125l3.609375 0l0 -5.90625l7.890625 -4.578125l0 10.484375l5.375 0zm13.293823 -11.296875l0 15.078125q3.8125 -4.453125 9.09375 -4.453125q2.71875 0 4.890625 1.015625q2.1875 1.0 3.296875 2.578125q1.109375 1.5625 1.515625 3.46875q0.40625 1.90625 0.40625 5.90625l0 17.4375l-7.859375 0l0 -15.703125q0 -4.671875 -0.453125 -5.921875q-0.453125 -1.265625 -1.59375 -2.0q-1.125 -0.75 -2.828125 -0.75q-1.96875 0 -3.515625 0.953125q-1.53125 0.9375 -2.25 2.859375q-0.703125 1.921875 -0.703125 5.671875l0 14.890625l-7.859375 0l0 -41.03125l7.859375 0zm44.39331 31.5625l7.84375 1.328125q-1.515625 4.3125 -4.78125 6.5625q-3.25 2.25 -8.15625 2.25q-7.75 0 -11.46875 -5.0625q-2.953125 -4.0625 -2.953125 -10.25q0 -7.390625 3.859375 -11.578125q3.875 -4.1875 9.78125 -4.1875q6.625 0 10.453125 4.390625q3.84375 4.375 3.6875 13.421875l-19.71875 0q0.09375 3.5 1.90625 5.453125q1.828125 1.9375 4.53125 1.9375q1.859375 0 3.109375 -1.0q1.265625 -1.015625 1.90625 -3.265625zm0.453125 -7.9375q-0.09375 -3.421875 -1.78125 -5.1875q-1.671875 -1.78125 -4.078125 -1.78125q-2.5625 0 -4.25 1.875q-1.671875 1.875 -1.65625 5.09375l11.765625 0zm35.68579 17.40625l-9.40625 -29.734375l7.640625 0l5.578125 19.484375l5.125 -19.484375l7.578125 0l4.953125 19.484375l5.6875 -19.484375l7.75 0l-9.546875 29.734375l-7.5625 0l-5.109375 -19.125l-5.046875 19.125l-7.640625 0zm37.2323 -15.28125q0 -3.921875 1.921875 -7.578125q1.9375 -3.671875 5.46875 -5.609375q3.546875 -1.9375 7.921875 -1.9375q6.75 0 11.046875 4.390625q4.3125 4.375 4.3125 11.0625q0 6.75 -4.359375 11.1875q-4.34375 4.4375 -10.953125 4.4375q-4.078125 0 -7.796875 -1.84375q-3.703125 -1.84375 -5.640625 -5.40625q-1.921875 -3.578125 -1.921875 -8.703125zm8.0625 0.421875q0 4.421875 2.09375 6.78125q2.109375 2.34375 5.1875 2.34375q3.078125 0 5.15625 -2.34375q2.09375 -2.359375 2.09375 -6.84375q0 -4.359375 -2.09375 -6.703125q-2.078125 -2.359375 -5.15625 -2.359375q-3.078125 0 -5.1875 2.359375q-2.09375 2.34375 -2.09375 6.765625zm36.29956 14.859375l-7.859375 0l0 -29.734375l7.296875 0l0 4.234375q1.875 -3.0 3.375 -3.953125q1.5 -0.953125 3.40625 -0.953125q2.6875 0 5.171875 1.484375l-2.421875 6.859375q-2.0 -1.28125 -3.703125 -1.28125q-1.65625 0 -2.8125 0.90625q-1.140625 0.90625 -1.796875 3.296875q-0.65625 2.375 -0.65625 9.953125l0 9.1875zm14.778564 0l0 -41.03125l7.875 0l0 41.03125l-7.875 0zm43.193237 0l-7.296875 0l0 -4.359375q-1.828125 2.546875 -4.3125 3.796875q-2.46875 1.234375 -4.984375 1.234375q-5.125 0 -8.78125 -4.125q-3.65625 -4.125 -3.65625 -11.515625q0 -7.5625 3.5625 -11.5q3.5625 -3.9375 8.984375 -3.9375q4.984375 0 8.625 4.15625l0 -14.78125l7.859375 0l0 41.03125zm-20.984375 -15.5q0 4.75 1.3125 6.875q1.90625 3.078125 5.3125 3.078125q2.71875 0 4.625 -2.296875q1.90625 -2.3125 1.90625 -6.90625q0 -5.125 -1.859375 -7.375q-1.84375 -2.25 -4.71875 -2.25q-2.796875 0 -4.6875 2.21875q-1.890625 2.21875 -1.890625 6.65625z" fill-rule="nonzero"/><path fill="#010000" fill-opacity="0.0" d="m821.8489 366.76913l0 0l0 65.92175l0 0l0 -65.92175z" fill-rule="nonzero"/><path fill="#ff00ff" d="m490.95013 120.2336l396.75592 0l0 158.3622l-396.75592 0z" fill-rule="evenodd"/><path fill="#000000" fill-opacity="0.0" d="m499.95013 132.37596l15.927612 0l0 65.92174l-15.927612 0l0 -65.92174z" fill-rule="nonzero"/><path fill="#000000" fill-opacity="0.0" d="m515.87775 132.37596l0 0l0 65.92174l0 0l0 -65.92174z" fill-rule="nonzero"/><path fill="#000000" fill-opacity="0.0" d="m499.95013 201.17595l15.927612 0l0 65.92174l-15.927612 0l0 -65.92174z" fill-rule="nonzero"/><path fill="#010000" fill-opacity="0.0" d="m515.87775 201.17595l0 0l0 65.92174l0 0l0 -65.92174z" fill-rule="nonzero"/></g></svg>